<?xml version="1.0" encoding="utf-8"?>
<!-- Generator: Adobe Illustrator 15.0.0, SVG Export Plug-In . SVG Version: 6.00 Build 0)  -->
<!DOCTYPE svg PUBLIC "-//W3C//DTD SVG 1.1//EN" "http://www.w3.org/Graphics/SVG/1.1/DTD/svg11.dtd">
<svg version="1.1" id="Layer_1" xmlns="http://www.w3.org/2000/svg" xmlns:xlink="http://www.w3.org/1999/xlink" x="0px" y="0px"
	 width="512px" height="512px" viewBox="0 0 512 512" enable-background="new 0 0 512 512" xml:space="preserve">
<g>
	<path d="M444.157,146.196C406.303,81.553,336.089,38.049,255.918,38.049c-90.25,0-167.81,55.149-200.863,133.509l55.911,23.462
		c23.869-56.487,79.84-96.251,144.934-96.251c63.584,0,118.469,37.713,143.217,92.146l-66.423,66.109H512V78.386L444.157,146.196z"
		/>
	<path d="M255.927,413.232c-63.475,0-118.271-37.805-143.079-92.085c-0.043-0.143-0.101-0.64-0.172-0.799l66.455-66.908H0v180.174
		l67.722-67.778c37.86,64.626,108.047,108.115,188.204,108.115c90.25,0,167.798-55.15,200.853-133.509l-55.916-23.462
		C376.994,373.468,321.021,413.232,255.927,413.232z"/>
</g>
</svg>
